<?xml version="1.0" encoding="UTF-8"?>
<!DOCTYPE svg PUBLIC "-//W3C//DTD SVG 1.1//EN" "http://www.w3.org/Graphics/SVG/1.1/DTD/svg11.dtd">
<!-- Creator: CorelDRAW 2023 (Not for commercial use) -->
<svg xmlns="http://www.w3.org/2000/svg" xml:space="preserve" width="199.983mm" height="199.983mm" version="1.1" style="shape-rendering:geometricPrecision; text-rendering:geometricPrecision; image-rendering:optimizeQuality; fill-rule:evenodd; clip-rule:evenodd"
viewBox="0 0 19998.27 19998.27"
 xmlns:xlink="http://www.w3.org/1999/xlink"
 xmlns:xodm="http://www.corel.com/coreldraw/odm/2003">
 <defs>
  <style type="text/css">
   <![CDATA[
    .fil1 {fill:black}
    .fil0 {fill:#F296B6}
   ]]>
  </style>
 </defs>
 <g id="Layer_x0020_1">
  <metadata id="CorelCorpID_0Corel-Layer"/>
  <g id="_2383117281360">
   <circle class="fil0" cx="9991.53" cy="10006.73" r="9999.13"/>
   <path class="fil1" d="M8966.25 8080.12c70.58,281.71 -348.08,251.26 -677.28,456.58 -928.8,579.32 -1820.52,-535.21 -2802.79,-444.84 -428.73,39.44 -937.15,275.8 -1074.93,658.96 -263.03,731.52 327.7,727.04 171.95,1372.09 -65.65,271.96 -406.6,662.01 -16.78,836.22 311.9,139.37 634.59,90.55 851.59,341.04l244.77 325.98c81.92,126.07 138.31,294.89 222.52,372.39 259.45,238.75 637.08,83.53 978.6,224.42 362.58,149.58 532.33,576.38 1270.14,183.38 238.98,-127.3 601.06,-498.16 754.04,-706.5 52.75,-71.85 75.79,-128.19 121.06,-195.61 8.76,-13.05 17.38,-25.79 25.85,-38.3 -28.56,209.08 -51.99,391.67 -68.63,500.97 -131.68,863.8 -14.17,1814.52 119.18,2678.98 18.86,122.14 65.9,249.06 88.01,355.96l174.73 1068.33c35.66,179.1 20.99,212.58 37.65,403.1 -112.08,-43.96 -242.52,-298.58 -305.06,-404.36l-826.6 -1374.03c-39.86,-84.24 -74.22,-230.04 -128.17,-353.67l-217.09 -508.28c-8.93,-22.8 -24.53,-70.56 -26.14,-74.56 -26.14,-64.78 -8.87,-32.52 -46.09,-81.31 -289.46,-379.34 -445.25,-396.29 -797.75,-695.18 -99.87,-84.69 -172.23,-120.15 -278.38,-194.62 -111.01,-77.87 -162.52,-124.8 -301.19,-198.34 -77.62,-41.16 -231.9,-138.86 -328.57,-174.97 -108.23,-40.44 -293.48,-118.66 -382.27,-124.77 -38.61,64.23 -1.41,115.64 -32.67,179.22 -255.23,-90.18 -228.71,-467.15 -1978.6,-577.76 -237.98,-15.05 -564.93,-127.6 -791.72,-39.37 4.43,208.82 294.39,311.7 415.89,445.57l379.12 503.98c219.83,350.11 -28.37,271.66 642.79,884.79 78.23,71.44 36.57,52.19 147.75,96.26l-94.96 79.77c-43.6,26 -54.22,23.24 -100.79,55.55 4.02,186.86 135.08,275.07 270.35,370.77 444.1,314.14 265.82,180.02 585.53,330.48 290.12,136.51 547.62,108.97 849.22,120.16 -51.96,61.05 -78.38,57.88 -104.77,91.47 -59.77,25.35 -82.3,65.85 -162.7,164.56l-7.79 154.17c530.17,315.14 1013.85,240.94 1562.87,314.54 430.46,57.7 327.82,-7.38 739.22,166.99 497.76,210.95 510.18,380.29 788.83,621.48 192.42,166.57 461.32,619.22 555.6,845.11 267.74,641.44 47.46,1139.59 160.62,1616.87 394.89,107.62 410.1,-22.93 445.81,-368.28 47.56,-460.02 237.01,-992.32 501.59,-1350.44 37.74,-51.09 55.16,-67.2 95.21,-117.02 286.41,-356.12 579.3,-519.73 1088.72,-500.15 112.63,4.32 208.97,18.02 316.78,-9.74 83.88,-21.59 125.95,-10.42 209.42,-5.49 367.52,-23.55 663.75,-59.91 1006.21,-136.29 214.32,-47.8 463.68,-122.88 651.65,-242.7 -50.6,-140.22 -140.21,-73.73 -176.05,-235.37 206.55,-89.45 492.03,-139.79 679.05,-278.15l201.58 -134.12c179.21,-153.77 212.09,-149.69 374.7,-271.69 195.93,-147 192.98,-177.39 268.76,-414 -75.63,-97.37 -117.38,-69.28 -214.95,-99.49 30.67,-115.17 21.73,-67.21 90.78,-146.4 93.94,-107.74 210.03,-222.51 288.6,-364.98 235.28,-426.54 276.44,-909.17 455.04,-1347.74 39.13,-96.06 103.35,-205.52 155.37,-302.54 76.3,-142.32 68.85,-194.46 64.92,-362.61 -165.94,10.01 -342.36,267.4 -596.72,499.15 -112.56,102.57 -78.94,99.11 -265.88,178.31 -74.65,31.62 -90.32,39.03 -150.92,74.62 -295.77,173.72 -705.05,143.6 -1012.23,298.23 -102.93,51.82 -185.36,115.33 -308.7,99.31 0.41,-148.99 43.65,-82.05 69.06,-214.56 -660.15,-92.55 -1157.05,684.9 -1289.32,580.26 -56.27,-44.53 -7.29,27.67 -9.9,-18.31 -6.88,-120.53 93.71,-349.54 -276.92,-129.77 -254.82,151.1 -486.84,338.47 -675,575.45l-188.68 256.06c-78.84,109.15 -177.55,211.57 -239.19,338.65 -75.51,155.71 -143.99,256.53 -205.21,434.02 -366.63,1062.92 -24.63,595.31 -650.43,1843.14l-189.47 442.09c-2.41,6.54 -28.87,69.56 -33.75,76.41 -44.57,62.54 11.69,24.99 -69.42,63.55 -35.95,-260.53 -52.55,-563.33 -87.9,-853.63 -65.99,-541.8 -172.11,-1065.54 -288.08,-1585.38l-155.31 -740.26c-113.02,-665.49 -145.45,-1268.37 -46.29,-1946.72 8.68,-59.39 10,-206.84 10.82,-213.09 -16.3,-911.82 119.4,-1203.34 192.76,-1782.01 7.49,-59.03 152.66,-386.84 189.97,-597.34 132.17,385.45 -317.76,1668.66 485.05,2610.81l285.49 288.71c275.43,242.55 563.38,379.85 972.4,449.02 422.84,71.49 610.4,-5.46 870.01,-214.37 828.7,-666.85 1180.27,-19.51 1750.96,-200.11 320.32,-101.39 113.44,-548.48 239.38,-856.05 202.15,-493.68 1483.2,-706.84 991.87,-1622.66 -89.41,-166.66 -100.1,-223.22 -224.66,-345.57 -454.39,-446.28 -757.92,-639.41 -1639.83,-595.99 -671.05,33.05 -1350.77,152.89 -2005.4,-164.85 -67.69,-600.63 454.99,-131.25 1389.54,-53.08 307.72,25.73 583.64,-54.34 914.74,-43.18 580.39,19.55 1119.14,338.16 1628.47,-46.1 470.76,-355.17 168.93,-645.86 667.7,-1043.84l185.74 -178.66c359.61,-514.17 -12.46,-951.48 1.52,-1499.76 10.85,-425.56 226.36,-613.84 228.05,-770.93 3.15,-291.82 -402.97,-192.84 -631.11,-343.54 -372.93,-246.33 -451.88,-919.62 -908.42,-1049.41 -242.75,-69.02 -640.41,-42.11 -874.16,39.54 -100.6,35.13 -250.47,88.9 -353.41,134.41 -42.85,18.93 -120.24,66.67 -147.37,85.63 -54.9,38.31 -90.19,80.85 -135.88,125.27 -42.47,41.3 -74.17,72.58 -123.04,111.56 -283.83,226.38 -556.72,653.05 -768.92,959.7 -169.03,244.28 -277.08,537.2 -476.3,761.41 -60.83,68.46 -58.29,49 -111.06,123.74 -116.67,165.27 -336.12,313.62 -499.9,490.16 -636.15,685.68 -821.83,322.69 -634.06,76.13 100.46,-131.9 625.57,-493 800.05,-682.24 39.01,-42.32 67.4,-82.78 110.89,-124.45 127.64,-122.31 252.14,-248.91 340.69,-421.1l572.76 -897.58 346.61 -385.71c50.55,-64.63 48.13,-69.49 116.46,-146.16 340.2,-381.62 405.85,-1005.22 143.1,-1512.36 -110.69,-213.62 -276.17,-356.92 -499.15,-469.7 -275.47,-139.31 -513.41,-120.87 -810.65,-203.79 -539.61,-150.56 -708.41,-899.98 -1254.1,-691.36 -257.4,98.41 -295.88,292.7 -588.22,370.93 -502.64,134.51 -743.53,-261.71 -1588.81,266.88 -111.98,70.03 -369.55,356.7 -441.88,556.05 -263.67,726.68 525.41,1216.12 675.25,2144.54 167.97,1040.77 802.66,1856.85 800.41,2099.97 -3.09,332.2 -338.26,79.75 -483.34,-180.42 -114.98,-206.18 -513.65,-1163.5 -547.98,-1377.98 -122.41,-764.57 -151.6,-750.34 -465.67,-1480.28 -80.07,-186.07 -266.48,-444.18 -427.64,-560.22 -348.07,-250.61 -995.71,-562.81 -1510.91,-402.77 -895.49,278.19 -625.25,699.85 -1021.77,934.25 -304.78,180.14 -405.79,126.3 -719.92,227.12 -391.1,125.53 -92.91,382.7 -16.06,591.74 200.23,544.69 -437.34,1023.8 -505,1448.64 -77.78,488.54 174.67,1249.33 434.6,1462.55 592.43,486.03 834.84,260.16 1574.62,331.37 954.56,91.9 1477.65,913.85 2481.01,382.85 53.94,-28.54 115.16,-45.55 184.15,-71.75 169.08,-64.21 174.18,-129.14 390.41,-61.68zm6055.07 -1963.66c-423.33,48.04 -631.94,321.47 -1029.98,535.93 -489.18,226.2 -864.98,227.64 -1177.47,537.36 462.57,-23.19 1135.75,-350.41 1280.02,-408.08 227.07,-165.1 654.18,-330.61 927.43,-665.21zm-7181.14 8724.88c-116.81,-150.53 -127.68,-200.68 -233.61,-301.05 -175.58,-159.2 -359.71,-288.86 -539.56,-433.29 -340.69,-262.65 -686.49,-488.21 -1075.02,-717.19 -502.02,-256.88 -940.11,-528.19 -1506.04,-770.64 -141.48,-54.32 -235.8,-123.65 -349.98,-210.52 53.54,80.41 100.77,157.39 230.76,250.2 309.36,205.9 771.6,562.24 915.42,703.47 439.81,242.05 615.53,341.06 1055.33,583.11 301.87,197.44 872.19,416.55 1174.06,613.96 130.14,85.11 177.46,198.39 328.64,281.97zm3573.27 902c114.18,-152.53 246.19,-290.78 350.37,-392.97 207.15,-151.67 351.52,-209.36 528.84,-356.88 336.1,-268.5 856.86,-519.83 1241.37,-755.49 497.5,-265.54 751.92,-524.55 1313.58,-776.75 140.51,-56.76 420.51,-365.04 533.17,-453.87 -52.13,81.32 -284.93,396.43 -413.29,491.49 -305.74,211.2 -761.76,575.49 -903.11,719.2 -435.56,249.62 -593.22,266.46 -1028.77,516.08 -298.41,202.62 -881.19,516.78 -1179.58,719.36 -128.65,87.33 -292.88,203.67 -442.58,289.84zm-3573.16 -5927.97c-423.33,48.04 -631.93,321.47 -1029.98,535.92 -489.18,226.21 -864.97,227.64 -1177.46,537.36 462.57,-23.17 1135.74,-350.4 1280.01,-408.08 227.08,-165.09 654.19,-330.61 927.43,-665.2zm5729.47 1769.74c-259.31,-338.04 -601.14,-375.91 -990.04,-606.54 -445.94,-302.66 -640.81,-623.99 -1067.27,-732.19 258.23,384.49 885.54,792.78 1009.31,886.69 258.51,109.53 620.45,390.28 1048,452.03zm-8205.36 -6500.61c330.12,269.34 585.95,633.19 937.59,842.72 503.6,191.99 764.41,590.51 1204.33,597.71 -339.75,-314.77 -928.87,-658.05 -1070.93,-720.98 -276.77,-47.15 -640.68,-757.69 -1070.99,-719.45zm5269.95 -2559.25c-67.77,173.22 -192.98,427.68 -221.75,690.76 -24.95,227.9 95.02,581.02 96.44,752.04 -23.18,438.56 -188.53,911.61 -84.28,1254.63 159.35,-342.13 213.69,-869.92 227.03,-995.81 1.54,-115.32 3.63,-505.37 -67.92,-843.38 -101.91,-365.4 121.07,-691.33 50.49,-858.25zm-2617.79 4649.07c-449.19,159.32 -316.65,880.81 209.93,712.6 404.8,-129.32 271.79,-883.42 -209.93,-712.6zm2740.51 2771.36c-99.77,-86.9 -250.78,-233.17 -431.75,-220.44 -339.52,23.88 -296.6,679.5 156.15,599.8 181.31,-31.92 197.52,-179.05 275.61,-379.36zm326.48 -206.62c42.1,55.83 89.5,96.2 178.73,120.86 727.96,201.21 721.34,-498.7 40.57,-514.99 -270.18,-6.45 -258.73,160.63 -219.3,394.13zm-1290.49 -3957.15c-305.93,205.67 -12.32,808.2 326.2,567.87 99.57,-70.69 281.86,-533.34 -50.63,-591.14 -90.84,-15.79 -200.97,-26.86 -275.58,23.27zm1216.6 624.58c326.86,-498.55 -156.61,-693.83 -352.26,-636.21 -137.2,40.41 -262.22,241.3 -131.06,415.76 160.2,213.1 190.28,190.25 483.32,220.45zm740.87 1141.47c482.71,53.16 568.89,-468.18 254.33,-603.38 -206.37,-88.69 -358.57,-25.27 -412.08,137.83 -64.38,196.24 63.83,354.99 157.76,465.55zm34.57 583.87c42.11,55.83 89.5,96.2 178.72,120.85 727.97,201.21 721.36,-498.7 40.58,-514.98 -270.17,-6.45 -258.74,160.63 -219.3,394.13zm-348.86 -40.15c333.24,-130.86 308.59,-624.22 1.63,-620.81 -327.96,3.69 -203.15,507.13 -1.63,620.81zm-881.5 1152.77c-285.48,180.1 -56.18,572.8 248.88,405.29 298.35,-163.84 67.96,-605.16 -248.88,-405.29zm-568.95 -2551.59c213.54,261.27 649.15,96.84 557.54,-177.6 -97.91,-293.23 -513.68,-36.04 -557.54,177.6zm-1280.95 870.57c204.56,-50.85 351.81,-137.65 385.54,-310.79 -51.46,-185.49 -255.9,-285.2 -389.76,-145.04 -98.66,103.33 -86.02,356.76 4.22,455.83zm470.66 1395.51c-68.91,-36.13 -324.92,-73.7 -357.36,58.13 -137.5,558.83 851.08,200.68 357.36,-58.13zm-31.51 521.41c-91.67,-48.05 -432.22,-98.04 -475.36,77.34 -182.92,743.39 1132.13,266.96 475.36,-77.34zm-671.66 -671.65c-102.6,-53.77 -483.69,-109.71 -531.97,86.55 -204.69,831.9 1266.93,298.73 531.97,-86.55zm270.59 -2216.93c-99.77,-86.9 -250.79,-233.18 -431.75,-220.44 -339.51,23.87 -296.58,679.5 156.16,599.8 181.31,-31.93 197.51,-179.05 275.6,-379.36zm1321.56 1222.13c-0.06,0.03 -324.8,72.03 -189.43,350.23l55.11 74.38c125.71,151.56 149.89,190.61 316.12,141.73 190.41,-56 282,-195.75 221.54,-379.12 -64.21,-194.8 -203.39,-282.03 -403.34,-187.22zm-91.35 -261.63l-69.85 67.24c-35.22,29.26 -51.66,42.28 -98.5,72.75 -149.86,-57.18 -270.4,-299.28 -318.22,-248.47 -158.74,218.39 302.2,285.49 193,450.83 -63.51,96.16 -239.84,24.68 -287.41,18.98l-68.27 6.06c-57.73,165.61 117.25,53.29 241.14,211.08 159.19,202.76 -140,113.96 -202.42,207.93 66.3,109.62 271.38,69.22 418.79,67.31 11.88,145.69 -43.39,155.9 -127.37,211.56 -98.06,46.04 -240.56,95.12 2.86,180.67 61.86,-3.09 132.59,-36.48 180.77,-77.06 95.83,-80.71 71.38,-58.14 193.9,-98.76 118.61,209.54 -10.87,345.81 171.29,366.7 47.78,-108.66 29.54,-176.06 36.28,-248.86 0.7,-7.74 3.26,-29.13 4.88,-36.41 11.02,-48.86 -4.47,-15.72 21.49,-57.21 127.75,64.65 54.2,54.4 123.7,183.89 47.75,57.97 107.3,118.52 187.91,43.11 32.55,-29.5 -166.34,-218.07 -75.04,-413.2 60.53,-0.13 140.13,262.45 364.1,153.81 14.17,-87.79 -226.9,-180.23 -213.08,-306.49 134.13,-166.16 307.07,10.13 373.82,-168.91 -52.35,-43.09 -225.31,-18.43 -313.19,-25.54 13.88,-203.72 214.5,-114.94 219.57,-271.06 -6.77,-3.57 -17.44,-14.87 -21.58,-7.87 -4.06,6.86 -16.31,-5.94 -21.53,-6.49 0,0 9.72,-31.73 -121.26,20.23 -71.71,28.44 -71.73,58.57 -148.19,-0.57 -64.21,-161.01 156.26,-177.35 157.48,-396.28 -180.48,-0.04 -119.36,141.39 -295.03,239.98 -15.21,-9.85 -96.19,-72.14 -97.35,-73.35 -98.48,-101.97 -43.11,-299.54 -114.49,-403.9 -84.47,-123.51 58.55,16.59 -30.44,-30.34 -70.26,146.27 61.39,250.29 -90.85,342.33 -113.61,-50.37 -27.67,-189.35 -241.51,-328.21 -20.44,126.44 52.79,228.52 64.61,354.5z"/>
  </g>
 </g>
</svg>
